<svg width="20" height="20" viewBox="0 0 20 20" fill="none" xmlns="http://www.w3.org/2000/svg">
<path fill-rule="evenodd" clip-rule="evenodd" d="M6.87496 7.5C6.87496 5.77411 8.27407 4.375 9.99996 4.375C11.7259 4.375 13.125 5.77411 13.125 7.5C13.125 9.22589 11.7259 10.625 9.99996 10.625C8.27407 10.625 6.87496 9.22589 6.87496 7.5ZM9.99996 5.625C8.96443 5.625 8.12496 6.46447 8.12496 7.5C8.12496 8.53553 8.96443 9.375 9.99996 9.375C11.0355 9.375 11.875 8.53553 11.875 7.5C11.875 6.46447 11.0355 5.625 9.99996 5.625Z" fill="black"/>
<path fill-rule="evenodd" clip-rule="evenodd" d="M4.54697 6.7727C4.7751 4.00502 7.08792 1.875 9.86498 1.875H10.1349C12.912 1.875 15.2248 4.00502 15.453 6.7727C15.5752 8.25626 15.117 9.72938 14.1747 10.8818L11.179 14.5454C10.5696 15.2907 9.43029 15.2907 8.82089 14.5454L5.82523 10.8818C4.88294 9.72937 4.42468 8.25626 4.54697 6.7727ZM9.86498 3.125C7.73846 3.125 5.96744 4.75605 5.79274 6.87538C5.69706 8.03619 6.05562 9.18883 6.79291 10.0905L9.78858 13.7541C9.89783 13.8877 10.1021 13.8877 10.2113 13.7541L13.207 10.0905C13.9443 9.18883 14.3029 8.03619 14.2072 6.87538C14.0325 4.75605 12.2615 3.125 10.1349 3.125H9.86498Z" fill="black"/>
<path d="M6.39231 13.6128C6.54668 13.3041 6.42154 12.9287 6.1128 12.7743C5.80407 12.6199 5.42864 12.7451 5.27428 13.0538L3.60761 16.3872C3.51074 16.5809 3.52109 16.811 3.63497 16.9952C3.74885 17.1795 3.95002 17.2917 4.16663 17.2917H15.8333C16.0499 17.2917 16.2511 17.1795 16.365 16.9952C16.4788 16.811 16.4892 16.5809 16.3923 16.3872L14.7256 13.0538C14.5713 12.7451 14.1959 12.6199 13.8871 12.7743C13.5784 12.9287 13.4532 13.3041 13.6076 13.6128L14.822 16.0417H5.1779L6.39231 13.6128Z" fill="black"/>
</svg>
