<svg width="131" height="37" viewBox="0 0 131 37" fill="none" xmlns="http://www.w3.org/2000/svg">
<path d="M89.6726 32.81C89.5194 33.0039 89.3499 33.1816 89.1641 33.3431C88.9784 33.5047 88.7717 33.6455 88.5442 33.7655C88.3166 33.8855 88.0682 33.9778 87.7988 34.0425C87.5295 34.1117 87.2323 34.1463 86.9072 34.1463C86.4428 34.1463 86.0457 34.084 85.716 33.9594C85.3863 33.8347 85.1146 33.657 84.901 33.4262C84.692 33.1908 84.5388 32.9092 84.4413 32.5815C84.3438 32.2491 84.295 31.8776 84.295 31.4667C84.295 31.1528 84.3252 30.8113 84.3856 30.442C84.4506 30.0727 84.5504 29.7034 84.6851 29.3341C84.8198 28.9648 84.9916 28.6071 85.2006 28.2609C85.4142 27.9147 85.6696 27.6077 85.9668 27.34C86.264 27.0723 86.6053 26.8599 86.9908 26.703C87.3809 26.5414 87.8197 26.4607 88.3073 26.4607C88.8878 26.4607 89.3801 26.5714 89.7841 26.793C90.1881 27.01 90.4807 27.3423 90.6618 27.7901L89.603 28.3578C89.4869 28.0716 89.3174 27.857 89.0945 27.7139C88.8716 27.5662 88.5697 27.4923 88.1889 27.4923C87.8871 27.4923 87.6107 27.5547 87.36 27.6793C87.1092 27.7993 86.884 27.9632 86.6843 28.1709C86.4892 28.374 86.3174 28.6117 86.1688 28.8841C86.0248 29.1518 85.9041 29.4357 85.8066 29.7357C85.7091 30.0311 85.6371 30.3335 85.5906 30.6428C85.5442 30.952 85.521 31.2452 85.521 31.5221C85.521 31.7575 85.5465 31.9745 85.5976 32.173C85.6487 32.3668 85.7323 32.533 85.8484 32.6715C85.9691 32.81 86.1247 32.9185 86.3151 32.9969C86.5055 33.0708 86.74 33.1077 87.0186 33.1077C87.209 33.1077 87.3855 33.0869 87.5481 33.0454C87.7106 32.9992 87.8662 32.9369 88.0148 32.8585C88.1634 32.7754 88.305 32.6738 88.4397 32.5538C88.579 32.4338 88.7183 32.2976 88.8576 32.1453L89.6726 32.81Z" fill="#FC5130"/>
<path d="M89.8607 35.5034C89.9629 35.5542 90.0813 35.5958 90.216 35.6281C90.346 35.6604 90.4853 35.6765 90.6339 35.6765C90.8058 35.6765 90.9683 35.6488 91.1215 35.5934C91.2794 35.5381 91.4327 35.448 91.5813 35.3234C91.7345 35.1988 91.8901 35.0326 92.048 34.8249C92.2059 34.6218 92.3754 34.3702 92.5565 34.0702L92.9466 33.447L91.8042 26.6684H93.0023L93.8313 32.0899L96.952 26.6684H98.2476L93.5317 34.4856C93.2856 34.8872 93.0557 35.2265 92.8421 35.5034C92.6331 35.7804 92.4172 36.0043 92.1943 36.1751C91.9714 36.3505 91.7299 36.4751 91.4698 36.549C91.2144 36.6274 90.9219 36.6667 90.5921 36.6667C90.4853 36.6667 90.3785 36.6597 90.2717 36.6459C90.1603 36.6367 90.0534 36.6228 89.9513 36.6044C89.8491 36.5859 89.7539 36.5628 89.6657 36.5351C89.5728 36.512 89.4915 36.4866 89.4219 36.4589L89.8607 35.5034Z" fill="#FC5130"/>
<path d="M98.791 36.6667H97.6068L99.7314 26.6684H100.916L100.776 27.3954C100.934 27.2662 101.099 27.1438 101.271 27.0284C101.443 26.913 101.621 26.8138 101.807 26.7307C101.998 26.6476 102.195 26.583 102.399 26.5368C102.604 26.486 102.82 26.4607 103.047 26.4607C103.433 26.4607 103.762 26.5184 104.036 26.6338C104.31 26.7445 104.533 26.9107 104.705 27.1323C104.881 27.3492 105.009 27.617 105.088 27.9355C105.172 28.254 105.214 28.621 105.214 29.0364C105.214 29.3503 105.183 29.6965 105.123 30.075C105.063 30.4489 104.967 30.8251 104.837 31.2036C104.707 31.5821 104.54 31.9491 104.336 32.3045C104.136 32.6553 103.895 32.9692 103.611 33.2462C103.333 33.5185 103.01 33.7378 102.643 33.904C102.281 34.0655 101.872 34.1463 101.417 34.1463C100.985 34.1463 100.616 34.0748 100.31 33.9317C100.003 33.7932 99.736 33.5947 99.5085 33.3362L98.791 36.6667ZM99.7174 32.2976C99.9496 32.5469 100.196 32.7407 100.456 32.8792C100.721 33.0131 101.032 33.08 101.389 33.08C101.673 33.08 101.933 33.0177 102.169 32.8931C102.411 32.7638 102.627 32.593 102.817 32.3807C103.008 32.1684 103.173 31.9237 103.312 31.6467C103.456 31.3698 103.577 31.0813 103.674 30.7812C103.772 30.4766 103.844 30.1719 103.89 29.8673C103.936 29.5626 103.96 29.2764 103.96 29.0087C103.96 28.4779 103.867 28.097 103.681 27.8662C103.495 27.6354 103.203 27.52 102.803 27.52C102.594 27.52 102.385 27.5477 102.176 27.6031C101.972 27.6539 101.775 27.7231 101.584 27.8108C101.394 27.8939 101.21 27.9932 101.034 28.1086C100.858 28.2194 100.695 28.3348 100.546 28.4548L99.7174 32.2976Z" fill="#FC5130"/>
<path d="M106.105 32.2976C106.105 32.2007 106.112 32.0922 106.126 31.9722C106.145 31.8522 106.172 31.7298 106.21 31.6052C106.251 31.476 106.305 31.349 106.37 31.2244C106.435 31.0998 106.514 30.982 106.607 30.8713C106.737 30.7143 106.888 30.5781 107.059 30.4627C107.236 30.3473 107.433 30.2435 107.652 30.1512C107.87 30.0542 108.109 29.9688 108.369 29.895C108.629 29.8165 108.91 29.7403 109.212 29.6665C109.556 29.588 109.832 29.5118 110.041 29.438C110.25 29.3595 110.426 29.2603 110.57 29.1403C110.677 29.0525 110.761 28.9302 110.821 28.7733C110.881 28.6163 110.912 28.464 110.912 28.3163C110.912 28.1732 110.879 28.0486 110.814 27.9424C110.754 27.8316 110.668 27.7416 110.556 27.6724C110.45 27.6031 110.319 27.5523 110.166 27.52C110.018 27.4831 109.857 27.4646 109.686 27.4646C109.453 27.4646 109.249 27.4946 109.073 27.5547C108.901 27.61 108.748 27.6816 108.613 27.7693C108.483 27.8524 108.369 27.9447 108.272 28.0463C108.179 28.1432 108.097 28.2332 108.028 28.3163L107.192 27.7347C107.517 27.3239 107.884 27.01 108.292 26.793C108.701 26.5714 109.184 26.4607 109.741 26.4607C110.164 26.4607 110.524 26.5068 110.821 26.5991C111.123 26.6915 111.367 26.8207 111.552 26.9869C111.743 27.1484 111.88 27.3446 111.963 27.5754C112.052 27.8016 112.096 28.0486 112.096 28.3163C112.096 28.3763 112.091 28.4479 112.082 28.5309C112.073 28.614 112.056 28.704 112.033 28.801C112.015 28.8979 111.984 28.9995 111.943 29.1056C111.905 29.2072 111.857 29.3087 111.796 29.4103C111.676 29.6088 111.529 29.7796 111.357 29.9227C111.19 30.0611 111 30.1835 110.786 30.2896C110.577 30.3912 110.345 30.4789 110.09 30.5528C109.839 30.6266 109.567 30.6982 109.275 30.7674C108.861 30.869 108.532 30.9659 108.285 31.0582C108.044 31.1505 107.849 31.2521 107.7 31.3629C107.566 31.4644 107.463 31.5983 107.394 31.7645C107.324 31.926 107.289 32.0945 107.289 32.2699C107.289 32.4499 107.329 32.5953 107.408 32.7061C107.491 32.8169 107.598 32.9046 107.728 32.9692C107.863 33.0339 108.011 33.0777 108.174 33.1008C108.337 33.1239 108.499 33.1354 108.662 33.1354C108.861 33.1354 109.047 33.1123 109.219 33.0662C109.391 33.02 109.549 32.9554 109.693 32.8723C109.841 32.7846 109.98 32.683 110.111 32.5676C110.241 32.4476 110.366 32.3161 110.487 32.173L111.309 32.8377C111.188 33.0039 111.042 33.1654 110.87 33.3224C110.703 33.4793 110.508 33.6201 110.285 33.7447C110.062 33.8647 109.811 33.9617 109.532 34.0355C109.254 34.1094 108.947 34.1463 108.613 34.1463C108.241 34.1463 107.902 34.1117 107.596 34.0425C107.289 33.9778 107.025 33.874 106.802 33.7309C106.583 33.5832 106.412 33.3916 106.286 33.1562C106.166 32.9208 106.105 32.6346 106.105 32.2976Z" fill="#FC5130"/>
<path d="M111.706 35.5034C111.808 35.5542 111.926 35.5958 112.061 35.6281C112.191 35.6604 112.33 35.6765 112.479 35.6765C112.651 35.6765 112.813 35.6488 112.967 35.5934C113.124 35.5381 113.278 35.448 113.426 35.3234C113.58 35.1988 113.735 35.0326 113.893 34.8249C114.051 34.6218 114.22 34.3702 114.401 34.0702L114.792 33.447L113.649 26.6684H114.847L115.676 32.0899L118.797 26.6684H120.093L115.377 34.4856C115.131 34.8872 114.901 35.2265 114.687 35.5034C114.478 35.7804 114.262 36.0043 114.039 36.1751C113.816 36.3505 113.575 36.4751 113.315 36.549C113.059 36.6274 112.767 36.6667 112.437 36.6667C112.33 36.6667 112.223 36.6597 112.117 36.6459C112.005 36.6367 111.898 36.6228 111.796 36.6044C111.694 36.5859 111.599 36.5628 111.511 36.5351C111.418 36.512 111.337 36.4866 111.267 36.4589L111.706 35.5034Z" fill="#FC5130"/>
<path d="M128.298 33.9317L129.211 29.6526C129.276 29.348 129.327 29.0849 129.364 28.8633C129.406 28.6417 129.427 28.4502 129.427 28.2886C129.427 28.0439 129.373 27.8593 129.267 27.7347C129.164 27.61 129 27.5477 128.772 27.5477C128.582 27.5477 128.387 27.587 128.187 27.6654C127.987 27.7393 127.788 27.8362 127.588 27.9562C127.388 28.0763 127.191 28.2124 126.996 28.3648C126.801 28.5125 126.617 28.6579 126.445 28.801L125.345 33.9317H124.161L125.073 29.6526C125.138 29.3434 125.189 29.0756 125.226 28.8494C125.268 28.6233 125.289 28.4317 125.289 28.2747C125.289 28.0255 125.233 27.8432 125.122 27.7278C125.011 27.6077 124.834 27.5477 124.593 27.5477C124.416 27.5477 124.228 27.5893 124.028 27.6724C123.833 27.7508 123.636 27.8524 123.436 27.977C123.237 28.097 123.039 28.2309 122.844 28.3786C122.654 28.5263 122.48 28.6671 122.322 28.801L121.221 33.9317H120.037L121.576 26.6684H122.761L122.538 27.7485C122.723 27.5639 122.918 27.3931 123.123 27.2361C123.332 27.0746 123.538 26.9384 123.743 26.8276C123.947 26.7122 124.147 26.6222 124.342 26.5576C124.541 26.493 124.725 26.4607 124.892 26.4607C125.189 26.4607 125.44 26.4953 125.644 26.5645C125.853 26.6338 126.021 26.7307 126.146 26.8553C126.271 26.98 126.362 27.13 126.418 27.3054C126.473 27.4808 126.501 27.6724 126.501 27.8801C126.961 27.4369 127.404 27.0907 127.832 26.8415C128.264 26.5876 128.668 26.4607 129.044 26.4607C129.355 26.4607 129.613 26.5022 129.817 26.5853C130.021 26.6638 130.184 26.7745 130.305 26.9176C130.425 27.0561 130.509 27.22 130.555 27.4092C130.602 27.5985 130.625 27.8016 130.625 28.0186C130.625 28.3694 130.572 28.7756 130.465 29.2372L129.469 33.9317H128.298Z" fill="#FC5130"/>
<path d="M10.4179 17.4714C10.4179 18.0154 10.2437 18.4574 9.90316 18.8054C9.56653 19.1554 9.12813 19.3314 8.60557 19.3314C8.07519 19.3314 7.63874 19.1554 7.30211 18.8054C6.9557 18.4574 6.78934 18.0154 6.78934 17.4714V10.5237C6.78934 10.0697 6.63473 9.6917 6.32745 9.37171C6.01823 9.06372 5.6405 8.89973 5.20797 8.89973C4.77152 8.89973 4.38988 9.06372 4.08261 9.37171C3.77142 9.6917 3.61876 10.0697 3.61876 10.5237V17.4714C3.61876 18.0154 3.45045 18.4574 3.10991 18.8054C2.76936 19.1554 2.33292 19.3314 1.80645 19.3314C1.27606 19.3314 0.84353 19.1554 0.504944 18.8094C0.1644 18.4574 0 18.0154 0 17.4714V1.84996C0 1.30798 0.1644 0.863995 0.504944 0.516007C0.84353 0.172019 1.27606 2.36661e-05 1.80645 2.36661e-05C2.33292 2.36661e-05 2.76936 0.172019 3.10991 0.516007C3.45045 0.863995 3.61876 1.30798 3.61876 1.84996V5.45984C4.13349 5.28385 4.66192 5.19185 5.20797 5.19185C6.65038 5.19185 7.88143 5.71383 8.88936 6.7478C9.90707 7.77976 10.4179 9.03972 10.4179 10.5137V17.4714Z" fill="#FC5130"/>
<path d="M20.4276 9.26456C19.9657 9.02057 19.4784 8.89857 18.9539 8.89857C18.0908 8.89857 17.3373 9.20456 16.7012 9.81254C16.0671 10.4205 15.7285 11.1725 15.6874 12.0665L20.4276 9.26456ZM25.2089 14.8204C25.2089 15.1144 25.1169 15.4344 24.9349 15.7943C24.3967 16.8723 23.5649 17.7263 22.4239 18.3763C21.3259 19.0142 20.1653 19.3302 18.9539 19.3302C17.0359 19.3302 15.4056 18.6403 14.061 17.2683C12.7145 15.8903 12.0432 14.2224 12.0432 12.2585C12.0432 10.2985 12.7145 8.63658 14.061 7.25462C15.4056 5.88267 17.0359 5.19269 18.9539 5.19269C19.8894 5.19269 20.8288 5.41668 21.7761 5.84867C22.7136 6.28465 23.5062 6.85864 24.1384 7.58261C24.8331 8.36459 25.1854 9.09656 25.1854 9.78454C25.1854 10.4165 24.8782 10.9145 24.2734 11.2705L17.4899 15.2704C17.9518 15.5064 18.4372 15.6284 18.9539 15.6284C19.7348 15.6284 20.3924 15.3984 20.913 14.9424C21.2672 14.5344 21.6176 14.1224 21.9679 13.7164C22.4415 13.2344 22.8897 12.9944 23.3144 12.9944C23.8037 12.9944 24.2401 13.1744 24.6296 13.5324C25.0132 13.8944 25.2089 14.3204 25.2089 14.8204Z" fill="#FC5130"/>
<path d="M33.1144 17.4714C33.1144 18.0154 32.95 18.4574 32.6055 18.8094C32.265 19.1554 31.8305 19.3314 31.2962 19.3314C30.0945 19.3314 29.065 18.8934 28.2176 18.0234C27.3662 17.1594 26.9376 16.1015 26.9376 14.8695V1.84996C26.9376 1.30798 27.1059 0.863995 27.4484 0.516007C27.7929 0.172019 28.2293 2.36661e-05 28.7538 2.36661e-05C29.2842 2.36661e-05 29.7207 0.172019 30.0592 0.516007C30.3998 0.863995 30.5642 1.30798 30.5642 1.84996V14.8695C30.5642 15.3735 30.8108 15.6275 31.2962 15.6275C31.8305 15.6275 32.265 15.7935 32.6055 16.1415C32.95 16.4955 33.1144 16.9335 33.1144 17.4714Z" fill="#FC5130"/>
<path d="M40.4612 17.4714C40.4612 18.0154 40.285 18.4574 39.9484 18.8094C39.6098 19.1554 39.1695 19.3314 38.6469 19.3314C37.4354 19.3314 36.4119 18.8934 35.5683 18.0234C34.7131 17.1594 34.2864 16.1015 34.2864 14.8695V1.84994C34.2864 1.30796 34.4567 0.863972 34.7992 0.515983C35.1319 0.171995 35.5683 0 36.0987 0C36.6213 0 37.0616 0.171995 37.4022 0.515983C37.7466 0.863972 37.9149 1.30796 37.9149 1.84994V14.8695C37.9149 15.3735 38.1537 15.6275 38.6469 15.6275C39.1695 15.6275 39.6098 15.7935 39.9484 16.1415C40.285 16.4954 40.4612 16.9334 40.4612 17.4714Z" fill="#FC5130"/>
<path d="M67.7905 12.7918C67.7905 11.5178 67.3404 10.4259 66.446 9.50791C65.5516 8.58995 64.4732 8.13996 63.2186 8.13996C61.9641 8.13996 60.8877 8.58995 59.9991 9.50791C59.1008 10.4259 58.6546 11.5178 58.6546 12.7918C58.6546 14.0837 59.1008 15.1757 59.9991 16.0937C60.8877 17.0116 61.9641 17.4636 63.2186 17.4636C64.4732 17.4636 65.5516 17.0116 66.446 16.0937C67.3404 15.1757 67.7905 14.0837 67.7905 12.7918ZM69.6048 12.7918C69.6048 14.6017 68.9805 16.1417 67.7338 17.4156C66.4753 18.6876 64.9703 19.3316 63.2108 19.3316C61.42 19.3316 59.9052 18.6716 58.6546 17.3636V23.9834C58.6546 24.6054 58.3532 24.9214 57.7445 24.9214C57.1339 24.9214 56.8403 24.6054 56.8403 23.9834V7.198C56.8403 6.58402 57.1339 6.27203 57.7484 6.27203C58.2181 6.27203 58.5078 6.50802 58.6115 6.974C58.6624 7.15 58.6722 7.56798 58.6624 8.23996C59.913 6.92601 61.4278 6.27203 63.2186 6.27203C64.9781 6.27203 66.4832 6.91801 67.7338 8.19196C68.9805 9.46591 69.6048 10.9979 69.6048 12.7918Z" fill="#1B1B1B"/>
<path d="M80.4391 9.71966C79.5212 8.66969 78.3861 8.13971 77.018 8.13971C75.7635 8.13971 74.6949 8.59169 73.8005 9.50966C72.9061 10.4276 72.4618 11.5216 72.4618 12.8016C72.4618 13.3075 72.5401 13.8055 72.6966 14.2855L80.4391 9.71966ZM82.6879 15.5855C82.6879 15.7255 82.6487 15.8895 82.5626 16.0755C82.0498 17.0514 81.2826 17.8434 80.2375 18.4394C79.2139 19.0334 78.1395 19.3314 77.0278 19.3314C75.2644 19.3314 73.7711 18.6874 72.5166 17.4154C71.264 16.1415 70.6416 14.6015 70.6416 12.7916C70.6416 10.9976 71.264 9.46566 72.5166 8.1917C73.7711 6.91974 75.2644 6.27176 77.0278 6.27176C77.656 6.27176 78.3117 6.39776 79.0006 6.63775C79.7756 6.91174 80.537 7.34573 81.2826 7.94771C82.2044 8.68969 82.6761 9.39367 82.6761 10.0496C82.6761 10.3836 82.5235 10.6376 82.2221 10.8096L73.6126 15.8895C74.5227 16.9394 75.6558 17.4634 77.0278 17.4634C78.4624 17.4634 79.6112 16.9334 80.4704 15.8615C80.5722 15.7055 80.7444 15.4555 80.9871 15.1375C81.2259 14.8175 81.4725 14.6675 81.7308 14.6675C81.9833 14.6675 82.2044 14.7495 82.3982 14.9275C82.592 15.1095 82.6879 15.3355 82.6879 15.5855Z" fill="#1B1B1B"/>
<path d="M94.6042 12.7919C94.6042 11.5179 94.156 10.426 93.2616 9.50798C92.3691 8.59001 91.2986 8.14002 90.0342 8.14002C88.7797 8.14002 87.7072 8.59001 86.8147 9.50798C85.9203 10.426 85.4702 11.5179 85.4702 12.7919C85.4702 14.0838 85.9203 15.1758 86.8147 16.0938C87.7072 17.0117 88.7797 17.4637 90.0342 17.4637C91.2986 17.4637 92.3691 17.0117 93.2616 16.0938C94.156 15.1758 94.6042 14.0838 94.6042 12.7919ZM96.4224 12.7919C96.4224 14.6018 95.7941 16.1418 94.5513 17.4157C93.2949 18.6877 91.7937 19.3317 90.0342 19.3317C88.2826 19.3317 86.7795 18.6877 85.525 17.4157C84.2763 16.1418 83.652 14.6018 83.652 12.7919C83.652 10.9979 84.2763 9.46598 85.525 8.19202C86.7795 6.91806 88.2826 6.27208 90.0342 6.27208C91.7937 6.27208 93.2949 6.91806 94.5513 8.19202C95.7941 9.46598 96.4224 10.9979 96.4224 12.7919Z" fill="#1B1B1B"/>
<path d="M109.424 12.7918C109.424 11.5178 108.981 10.4259 108.089 9.50791C107.195 8.58995 106.118 8.13996 104.86 8.13996C103.607 8.13996 102.531 8.58995 101.636 9.50791C100.74 10.4259 100.294 11.5178 100.294 12.7918C100.294 14.0837 100.74 15.1757 101.636 16.0937C102.531 17.0116 103.607 17.4636 104.86 17.4636C106.118 17.4636 107.195 17.0116 108.089 16.0937C108.981 15.1757 109.424 14.0837 109.424 12.7918ZM111.252 12.7918C111.252 14.6017 110.616 16.1417 109.371 17.4156C108.114 18.6876 106.615 19.3316 104.852 19.3316C103.063 19.3316 101.542 18.6716 100.294 17.3636V23.9834C100.294 24.6054 99.9923 24.9214 99.3876 24.9214C98.7828 24.9214 98.4697 24.6054 98.4697 23.9834V7.198C98.4697 6.58402 98.7828 6.27203 99.3954 6.27203C99.8612 6.27203 100.151 6.50802 100.257 6.974C100.298 7.15 100.319 7.56798 100.304 8.23996C101.554 6.92601 103.071 6.27203 104.86 6.27203C106.615 6.27203 108.116 6.91801 109.371 8.19196C110.616 9.46591 111.252 10.9979 111.252 12.7918Z" fill="#1B1B1B"/>
<path d="M117.512 18.3894C117.512 19.0134 117.207 19.3314 116.599 19.3314C115.604 19.3314 114.749 18.9614 114.035 18.2334C113.316 17.4974 112.964 16.6215 112.964 15.5975V1.62396C112.964 1.00198 113.264 0.683996 113.878 0.683996C114.479 0.683996 114.78 1.00199 114.78 1.62796V15.5975C114.78 16.1115 114.958 16.5515 115.319 16.9235C115.679 17.2874 116.109 17.4634 116.599 17.4634C117.207 17.4634 117.512 17.7714 117.512 18.3894Z" fill="#1B1B1B"/>
<path d="M127.589 10.1575C126.68 9.10754 125.539 8.57756 124.181 8.57756C122.919 8.57756 121.842 9.02954 120.958 9.94752C120.063 10.8655 119.613 11.9595 119.613 13.2394C119.613 13.7454 119.695 14.2434 119.86 14.7234L127.589 10.1575ZM129.841 16.0233C129.841 16.1633 129.796 16.3273 129.718 16.5133C129.203 17.4893 128.432 18.2812 127.399 18.8772C126.367 19.4712 125.293 19.7692 124.185 19.7692C122.426 19.7692 120.921 19.1252 119.67 17.8533C118.419 16.5793 117.799 15.0394 117.799 13.2294C117.799 11.4355 118.419 9.90352 119.67 8.62956C120.921 7.3576 122.426 6.70962 124.185 6.70962C124.811 6.70962 125.461 6.83562 126.158 7.07561C126.933 7.3496 127.692 7.78358 128.436 8.38556C129.364 9.12754 129.829 9.83152 129.829 10.4875C129.829 10.8215 129.673 11.0755 129.375 11.2475L120.77 16.3273C121.674 17.3773 122.809 17.9013 124.185 17.9013C125.627 17.9013 126.77 17.3713 127.618 16.2993C127.726 16.1433 127.902 15.8933 128.138 15.5753C128.381 15.2553 128.624 15.1054 128.89 15.1054C129.141 15.1054 129.358 15.1873 129.548 15.3653C129.749 15.5473 129.841 15.7733 129.841 16.0233Z" fill="#1B1B1B"/>
<path d="M54.5673 12.1664C54.5673 14.1391 53.8747 15.8139 52.4894 17.1909C51.1118 18.5602 49.4308 19.2448 47.4462 19.2448C45.4616 19.2448 43.7766 18.5602 42.3913 17.1909C41.0138 15.8139 40.325 14.1391 40.325 12.1664C40.325 10.1938 41.0138 8.5228 42.3913 7.15353C43.7766 5.77653 45.4616 5.08803 47.4462 5.08803C49.4308 5.08803 51.1118 5.77653 52.4894 7.15353C53.8747 8.5228 54.5673 10.1938 54.5673 12.1664ZM50.8316 12.1664C50.8316 11.2304 50.5009 10.4374 49.8394 9.78763C49.1856 9.13007 48.3879 8.80129 47.4462 8.80129C46.5045 8.80129 45.7028 9.13007 45.0413 9.78763C44.3876 10.4374 44.0607 11.2304 44.0607 12.1664C44.0607 13.1025 44.3876 13.8993 45.0413 14.5568C45.7028 15.2067 46.5045 15.5316 47.4462 15.5316C48.3879 15.5316 49.1856 15.2067 49.8394 14.5568C50.5009 13.8993 50.8316 13.1025 50.8316 12.1664Z" fill="#FC5130"/>
</svg>
