<svg width="21" height="18" viewBox="0 0 21 18" fill="none" xmlns="http://www.w3.org/2000/svg">
<path d="M5.79138 6.38922C4.94967 6.38922 4.26733 7.0917 4.26733 7.95824C4.26733 8.82479 4.94967 9.52727 5.79138 9.52727C6.63309 9.52727 7.31543 8.82479 7.31543 7.95824C7.31543 7.0917 6.63309 6.38922 5.79138 6.38922Z" fill="black"/>
<path d="M10.6683 6.38922C9.82662 6.38922 9.14428 7.0917 9.14428 7.95824C9.14428 8.82479 9.82662 9.52727 10.6683 9.52727C11.51 9.52727 12.1924 8.82479 12.1924 7.95824C12.1924 7.0917 11.51 6.38922 10.6683 6.38922Z" fill="black"/>
<path d="M14.0212 7.95824C14.0212 7.0917 14.7036 6.38922 15.5453 6.38922C16.387 6.38922 17.0693 7.0917 17.0693 7.95824C17.0693 8.82479 16.387 9.52727 15.5453 9.52727C14.7036 9.52727 14.0212 8.82479 14.0212 7.95824Z" fill="black"/>
<path fill-rule="evenodd" clip-rule="evenodd" d="M15.6681 0.229601C12.3832 -0.0587977 9.0812 -0.0755346 5.79375 0.179551L5.55815 0.197832C2.42312 0.441091 0 3.13081 0 6.36752V17.0586C0 17.3898 0.169067 17.6966 0.445203 17.8666C0.721339 18.0366 1.06391 18.0446 1.3473 17.8878L6.11549 15.2497C6.33728 15.127 6.58515 15.0628 6.83695 15.0628H17.7813C19.1616 15.0628 20.3445 14.0468 20.5919 12.6488C21.0934 9.8155 21.133 6.91598 20.7091 4.06926L20.5842 3.23037C20.3568 1.70308 19.1432 0.534704 17.6478 0.403413L15.6681 0.229601ZM5.9312 2.05705C9.12115 1.80953 12.3253 1.82577 15.5127 2.10562L17.4924 2.27943C18.1463 2.33684 18.677 2.84777 18.7765 3.51564L18.9014 4.35454C19.2945 6.99462 19.2577 9.68366 18.7927 12.3113C18.7037 12.8144 18.278 13.18 17.7813 13.18H6.83695C6.283 13.18 5.73768 13.3213 5.24974 13.5912L1.82886 15.4839V6.36752C1.82886 4.11578 3.51459 2.24457 5.6956 2.07534L5.9312 2.05705Z" fill="black"/>
</svg>
