<svg width="32" height="32" viewBox="0 0 32 32" fill="none" xmlns="http://www.w3.org/2000/svg">
<path fill-rule="evenodd" clip-rule="evenodd" d="M7.78705 13.1418C10.1701 18.331 14.4108 22.4566 19.6825 24.692L19.6991 24.6991L20.7175 25.153C22.0144 25.7308 23.5387 25.3205 24.3701 24.1697L26.0693 21.818C26.1731 21.6744 26.1463 21.4746 26.0084 21.3634L23.0421 18.9703C22.8946 18.8513 22.6778 18.879 22.565 19.0313L21.4105 20.5891C21.1301 20.9675 20.6238 21.0989 20.1948 20.9048C16.2529 19.1209 13.0853 15.9532 11.3014 12.0114C11.1072 11.5824 11.2387 11.076 11.617 10.7956L13.1749 9.64116C13.3271 9.52835 13.3548 9.31151 13.2358 9.16405L10.8424 6.19733C10.7312 6.05944 10.5315 6.03266 10.3879 6.13636L8.02352 7.84323C6.86513 8.67949 6.45719 10.2166 7.04847 11.5172L7.78626 13.1401C7.78652 13.1407 7.78679 13.1413 7.78705 13.1418ZM18.8933 26.5298C13.1652 24.0983 8.55808 19.6143 5.96868 13.9746L5.96712 13.9712L5.22779 12.3449C4.24232 10.1773 4.92223 7.61539 6.85287 6.22164L9.21726 4.51476C10.2228 3.78888 11.6204 3.97636 12.3991 4.94155L14.7924 7.90827C15.6252 8.9405 15.4312 10.4584 14.3657 11.248L13.473 11.9096C14.9809 14.8354 17.3707 17.2253 20.2966 18.7331L20.9581 17.8405C21.7478 16.7749 23.2657 16.581 24.2979 17.4137L27.2642 19.8068C28.2297 20.5857 28.4169 21.9838 27.6904 22.9893L25.9913 25.341C24.6055 27.2589 22.065 27.9429 19.9036 26.9799L18.8933 26.5298Z" fill="#7F7F7F"/>
</svg>
