<svg width="32" height="32" viewBox="0 0 32 32" fill="none" xmlns="http://www.w3.org/2000/svg">
<path d="M18.6667 12C18.6667 10.8954 19.5621 10 20.6667 10C21.7712 10 22.6667 10.8954 22.6667 12C22.6667 13.1046 21.7712 14 20.6667 14C19.5621 14 18.6667 13.1046 18.6667 12Z" fill="#7F7F7F"/>
<path fill-rule="evenodd" clip-rule="evenodd" d="M9.69004 6.2114C13.8888 5.84642 18.1112 5.84642 22.31 6.2114L24.3236 6.38645C26.2504 6.55394 27.8113 8.02013 28.0989 9.93265C28.7037 13.9549 28.7037 18.0451 28.0989 22.0673C27.8113 23.9799 26.2504 25.4461 24.3236 25.6135L22.31 25.7886C18.1113 26.1536 13.8888 26.1536 9.69004 25.7886L7.6764 25.6135C5.74964 25.4461 4.18875 23.9799 3.90115 22.0673C3.2963 18.0451 3.2963 13.9549 3.90115 9.93265C4.18875 8.02013 5.74964 6.55394 7.6764 6.38645L9.69004 6.2114ZM22.1368 8.20389C18.0533 7.84892 13.9467 7.84892 9.86325 8.20389L7.8496 8.37893C6.84383 8.46636 6.02904 9.23172 5.87891 10.2301C5.53553 12.5135 5.39714 14.82 5.46374 17.122L10.6262 11.9596C10.821 11.7648 11.0874 11.659 11.3627 11.6671C11.638 11.6752 11.8978 11.7965 12.0807 12.0023L16.976 17.5095L20.3504 16.3847C20.7278 16.2589 21.1438 16.3687 21.41 16.6644L26.1021 21.8779C26.1093 21.8422 26.1157 21.8062 26.1211 21.7699C26.6963 17.9448 26.6963 14.0552 26.1211 10.2301C25.971 9.23172 25.1562 8.46636 24.1504 8.37893L22.1368 8.20389ZM24.8269 23.4507L20.3615 18.4891L16.9829 19.6154C16.6034 19.7419 16.185 19.63 15.9192 19.331L11.2905 14.1237L5.63226 19.7819C5.6973 20.4461 5.77952 21.109 5.87891 21.7699C6.02904 22.7683 6.84383 23.5336 7.8496 23.6211L9.86325 23.7961C13.9467 24.1511 18.0533 24.1511 22.1368 23.7961L24.1504 23.6211C24.3887 23.6003 24.6163 23.5416 24.8269 23.4507Z" fill="#7F7F7F"/>
</svg>
