<svg width="16" height="16" viewBox="0 0 16 16" fill="none" xmlns="http://www.w3.org/2000/svg">
<path d="M4.67159 8C4.67159 7.72386 4.89545 7.5 5.17159 7.5H7.5V5.17157C7.5 4.89543 7.72386 4.67157 8 4.67157C8.27614 4.67157 8.5 4.89543 8.5 5.17157V7.5H10.8284C11.1046 7.5 11.3284 7.72386 11.3284 8C11.3284 8.27614 11.1046 8.5 10.8284 8.5H8.5V10.8284C8.5 11.1046 8.27614 11.3284 8 11.3284C7.72386 11.3284 7.5 11.1046 7.5 10.8284V8.5H5.17159C4.89545 8.5 4.67159 8.27614 4.67159 8Z" fill="black"/>
<path fill-rule="evenodd" clip-rule="evenodd" d="M4.87782 2.51251C6.93619 2.28245 9.06379 2.28245 11.1222 2.51251C12.3397 2.64859 13.323 3.60768 13.4662 4.83232C13.7124 6.93694 13.7124 9.06307 13.4662 11.1677C13.323 12.3923 12.3397 13.3514 11.1222 13.4875C9.06379 13.7176 6.93619 13.7176 4.87782 13.4875C3.66023 13.3514 2.67697 12.3923 2.53374 11.1677C2.28758 9.06307 2.28758 6.93694 2.53374 4.83232C2.67697 3.60768 3.66024 2.64859 4.87782 2.51251ZM11.0111 3.50632C9.02653 3.28452 6.97345 3.28452 4.9889 3.50632C4.22594 3.59159 3.61524 4.19375 3.52697 4.94849C3.28984 6.97592 3.28984 9.02408 3.52697 11.0515C3.61524 11.8063 4.22594 12.4084 4.98889 12.4937C6.97345 12.7155 9.02653 12.7155 11.0111 12.4937C11.774 12.4084 12.3847 11.8063 12.473 11.0515C12.7101 9.02408 12.7101 6.97592 12.473 4.94849C12.3847 4.19375 11.774 3.59159 11.0111 3.50632Z" fill="black"/>
</svg>
