<svg width="32" height="32" viewBox="0 0 32 32" fill="none" xmlns="http://www.w3.org/2000/svg">
<path fill-rule="evenodd" clip-rule="evenodd" d="M18.7496 7.49353C15.5958 7.16216 12.4174 7.13751 9.25886 7.41992L7.14982 7.6085C5.40696 7.76433 3.99877 9.0958 3.74564 10.8272C3.24413 14.2575 3.24413 17.7425 3.74564 21.1728C3.99877 22.9042 5.40696 24.2357 7.14982 24.3915L9.25886 24.5801C12.4174 24.8625 15.5958 24.8378 18.7496 24.5065L19.5599 24.4213C21.2187 24.247 22.5608 23.0123 22.8839 21.3914L26.9464 23.5498C27.2426 23.7071 27.598 23.7055 27.8928 23.5454C28.1876 23.3854 28.3825 23.0882 28.4118 22.754L28.445 22.3755C28.8169 18.1333 28.8169 13.8667 28.445 9.62445L28.4118 9.246C28.3825 8.91184 28.1876 8.61463 27.8928 8.45455C27.598 8.29447 27.2426 8.29285 26.9464 8.45023L22.8839 10.6086C22.5608 8.98771 21.2187 7.75295 19.5599 7.57866L18.7496 7.49353ZM9.43698 9.41198C12.4667 9.14109 15.5155 9.16473 18.5406 9.48258L19.3509 9.56771C20.1663 9.65339 20.8199 10.281 20.9386 11.0924C21.4144 14.3468 21.4144 17.6532 20.9386 20.9076C20.8199 21.7189 20.1663 22.3466 19.3509 22.4323L18.5406 22.5174C15.5155 22.8353 12.4667 22.8589 9.43698 22.588L7.32793 22.3994C6.50706 22.326 5.84382 21.6989 5.7246 20.8835C5.25114 17.645 5.25114 14.355 5.7246 11.1165C5.84382 10.3011 6.50706 9.67394 7.32793 9.60055L9.43698 9.41198ZM23.1466 12.7338C23.345 14.9067 23.345 17.0933 23.1466 19.2662L26.5426 21.0705C26.7843 17.6945 26.7843 14.3055 26.5426 10.9295L23.1466 12.7338Z" fill="#7F7F7F"/>
</svg>
