<svg width="18" height="18" viewBox="0 0 18 18" fill="none" xmlns="http://www.w3.org/2000/svg">
<path fill-rule="evenodd" clip-rule="evenodd" d="M12.5892 2.79374C11.9326 2.13716 10.8205 2.35133 10.4548 3.2048L9.26032 5.99183C8.13601 5.77134 6.9247 6.09614 6.05253 6.96832L4.76995 8.25089C4.55028 8.47056 4.55028 8.82671 4.76995 9.04638L6.64144 10.9179L2.60221 14.9571C2.38254 15.1768 2.38254 15.5329 2.60221 15.7526C2.82188 15.9723 3.17803 15.9723 3.3977 15.7526L7.43693 11.7134L9.30847 13.5849C9.41396 13.6904 9.55704 13.7497 9.70622 13.7497C9.8554 13.7497 9.99848 13.6904 10.104 13.5849L11.3865 12.3023C12.2587 11.4302 12.5835 10.2188 12.363 9.09452L15.15 7.90008C16.0035 7.53431 16.2177 6.42221 15.5611 5.76563L12.5892 2.79374ZM11.4888 3.64796C11.5411 3.52603 11.6999 3.49544 11.7937 3.58924L14.7656 6.56112C14.8594 6.65492 14.8288 6.81379 14.7069 6.86605L11.4704 8.25312C11.1971 8.37023 11.0622 8.67978 11.1624 8.95969C11.4706 9.82092 11.2791 10.8188 10.591 11.5068L9.70622 12.3917L5.9632 8.64864L6.84802 7.76381C7.53608 7.07576 8.53393 6.88423 9.39515 7.19248C9.67507 7.29267 9.98461 7.15773 10.1017 6.88446L11.4888 3.64796Z" fill="#949494"/>
</svg>
