<svg width="1044" height="209" viewBox="0 0 1044 209" fill="none" xmlns="http://www.w3.org/2000/svg">
<line x1="17" y1="5" x2="67" y2="5" stroke="#D5D5D5" stroke-width="10"/>
<line x1="97" y1="5" x2="147" y2="5" stroke="#D5D5D5" stroke-width="10"/>
<line x1="177" y1="5" x2="227" y2="5" stroke="#D5D5D5" stroke-width="10"/>
<line x1="257" y1="5" x2="307" y2="5" stroke="#D5D5D5" stroke-width="10"/>
<line x1="335" y1="5" x2="385" y2="5" stroke="#D5D5D5" stroke-width="10"/>
<line x1="415" y1="5" x2="465" y2="5" stroke="#D5D5D5" stroke-width="10"/>
<line x1="495" y1="5" x2="545" y2="5" stroke="#D5D5D5" stroke-width="10"/>
<line x1="575" y1="5" x2="625" y2="5" stroke="#D5D5D5" stroke-width="10"/>
<line x1="655" y1="5" x2="705" y2="5" stroke="#D5D5D5" stroke-width="10"/>
<line x1="735" y1="5" x2="785" y2="5" stroke="#D5D5D5" stroke-width="10"/>
<line x1="815" y1="5" x2="865" y2="5" stroke="#D5D5D5" stroke-width="10"/>
<line x1="895" y1="5" x2="945" y2="5" stroke="#D5D5D5" stroke-width="10"/>
<line x1="975" y1="5" x2="1025" y2="5" stroke="#D5D5D5" stroke-width="10"/>
<line x1="17" y1="204" x2="67" y2="204" stroke="#D5D5D5" stroke-width="10"/>
<line x1="97" y1="204" x2="147" y2="204" stroke="#D5D5D5" stroke-width="10"/>
<line x1="177" y1="204" x2="227" y2="204" stroke="#D5D5D5" stroke-width="10"/>
<line x1="257" y1="204" x2="307" y2="204" stroke="#D5D5D5" stroke-width="10"/>
<line x1="335" y1="204" x2="385" y2="204" stroke="#D5D5D5" stroke-width="10"/>
<line x1="415" y1="204" x2="465" y2="204" stroke="#D5D5D5" stroke-width="10"/>
<line x1="495" y1="204" x2="545" y2="204" stroke="#D5D5D5" stroke-width="10"/>
<line x1="575" y1="204" x2="625" y2="204" stroke="#D5D5D5" stroke-width="10"/>
<line x1="655" y1="204" x2="705" y2="204" stroke="#D5D5D5" stroke-width="10"/>
<line x1="735" y1="204" x2="785" y2="204" stroke="#D5D5D5" stroke-width="10"/>
<line x1="815" y1="204" x2="865" y2="204" stroke="#D5D5D5" stroke-width="10"/>
<line x1="895" y1="204" x2="945" y2="204" stroke="#D5D5D5" stroke-width="10"/>
<line x1="975" y1="204" x2="1025" y2="204" stroke="#D5D5D5" stroke-width="10"/>
<line x1="1039" y1="50" x2="1039" stroke="#D5D5D5" stroke-width="10"/>
<line x1="1039" y1="50" x2="1039" stroke="#D5D5D5" stroke-width="10"/>
<line x1="1039" y1="50" x2="1039" stroke="#D5D5D5" stroke-width="10"/>
<line x1="1039" y1="130" x2="1039" y2="80" stroke="#D5D5D5" stroke-width="10"/>
<line x1="1039" y1="209" x2="1039" y2="159" stroke="#D5D5D5" stroke-width="10"/>
<line x1="5" y1="50" x2="5" stroke="#D5D5D5" stroke-width="10"/>
<line x1="5" y1="50" x2="5" stroke="#D5D5D5" stroke-width="10"/>
<line x1="5" y1="50" x2="5" stroke="#D5D5D5" stroke-width="10"/>
<line x1="5" y1="130" x2="5" y2="80" stroke="#D5D5D5" stroke-width="10"/>
<line x1="5" y1="209" x2="5" y2="159" stroke="#D5D5D5" stroke-width="10"/>
</svg>
