<svg width="478" height="610" viewBox="0 0 478 610" fill="none" xmlns="http://www.w3.org/2000/svg">
<rect x="1" y="9" width="468" height="600" fill="white"/>
<line x1="4.5" y1="9" x2="4.5" y2="31" stroke="#D4D4D4" stroke-width="7"/>
<line x1="4.5" y1="41" x2="4.5" y2="63" stroke="#D4D4D4" stroke-width="7"/>
<line x1="4.5" y1="73" x2="4.5" y2="95" stroke="#D4D4D4" stroke-width="7"/>
<line x1="4.5" y1="105" x2="4.5" y2="127" stroke="#D4D4D4" stroke-width="7"/>
<line x1="4.5" y1="137" x2="4.5" y2="159" stroke="#D4D4D4" stroke-width="7"/>
<line x1="4.5" y1="169" x2="4.5" y2="191" stroke="#D4D4D4" stroke-width="7"/>
<line x1="4.5" y1="201" x2="4.5" y2="223" stroke="#D4D4D4" stroke-width="7"/>
<line x1="4.5" y1="233" x2="4.5" y2="255" stroke="#D4D4D4" stroke-width="7"/>
<line x1="4.5" y1="265" x2="4.5" y2="287" stroke="#D4D4D4" stroke-width="7"/>
<line x1="3.5" y1="298" x2="3.5" y2="320" stroke="#D4D4D4" stroke-width="7"/>
<line x1="4.5" y1="330" x2="4.5" y2="352" stroke="#D4D4D4" stroke-width="7"/>
<line x1="4.5" y1="362" x2="4.5" y2="384" stroke="#D4D4D4" stroke-width="7"/>
<line x1="4.5" y1="394" x2="4.5" y2="416" stroke="#D4D4D4" stroke-width="7"/>
<line x1="4.5" y1="426" x2="4.5" y2="448" stroke="#D4D4D4" stroke-width="7"/>
<line x1="4.5" y1="458" x2="4.5" y2="480" stroke="#D4D4D4" stroke-width="7"/>
<line x1="4.5" y1="490" x2="4.5" y2="512" stroke="#D4D4D4" stroke-width="7"/>
<line x1="4.5" y1="522" x2="4.5" y2="544" stroke="#D4D4D4" stroke-width="7"/>
<line x1="4.5" y1="554" x2="4.5" y2="576" stroke="#D4D4D4" stroke-width="7"/>
<line x1="3.5" y1="587" x2="3.5" y2="609" stroke="#D4D4D4" stroke-width="7"/>
<rect width="463" height="593" transform="translate(8 7)" fill="#D4D4D4"/>
<line x1="474.5" y1="7" x2="474.5" y2="28.7433" stroke="#D4D4D4" stroke-width="7"/>
<line x1="474.5" y1="38.6267" x2="474.5" y2="60.37" stroke="#D4D4D4" stroke-width="7"/>
<line x1="474.5" y1="70.2533" x2="474.5" y2="91.9967" stroke="#D4D4D4" stroke-width="7"/>
<line x1="474.5" y1="101.88" x2="474.5" y2="123.623" stroke="#D4D4D4" stroke-width="7"/>
<line x1="474.5" y1="133.507" x2="474.5" y2="155.25" stroke="#D4D4D4" stroke-width="7"/>
<line x1="474.5" y1="165.133" x2="474.5" y2="186.877" stroke="#D4D4D4" stroke-width="7"/>
<line x1="474.5" y1="196.76" x2="474.5" y2="218.503" stroke="#D4D4D4" stroke-width="7"/>
<line x1="474.5" y1="228.387" x2="474.5" y2="250.13" stroke="#D4D4D4" stroke-width="7"/>
<line x1="474.5" y1="260.013" x2="474.5" y2="281.757" stroke="#D4D4D4" stroke-width="7"/>
<line x1="11.5" y1="292.628" x2="11.5" y2="314.372" stroke="#D4D4D4" stroke-width="7"/>
<line x1="474.5" y1="324.255" x2="474.5" y2="345.998" stroke="#D4D4D4" stroke-width="7"/>
<line x1="474.5" y1="355.882" x2="474.5" y2="377.625" stroke="#D4D4D4" stroke-width="7"/>
<line x1="474.5" y1="387.508" x2="474.5" y2="409.252" stroke="#D4D4D4" stroke-width="7"/>
<line x1="474.5" y1="419.135" x2="474.5" y2="440.878" stroke="#D4D4D4" stroke-width="7"/>
<line x1="474.5" y1="450.762" x2="474.5" y2="472.505" stroke="#D4D4D4" stroke-width="7"/>
<line x1="474.5" y1="482.388" x2="474.5" y2="504.132" stroke="#D4D4D4" stroke-width="7"/>
<line x1="474.5" y1="514.015" x2="474.5" y2="535.758" stroke="#D4D4D4" stroke-width="7"/>
<line x1="474.5" y1="545.642" x2="474.5" y2="567.385" stroke="#D4D4D4" stroke-width="7"/>
<line x1="11.5" y1="578.257" x2="11.5" y2="600" stroke="#D4D4D4" stroke-width="7"/>
<rect width="462" height="593" transform="translate(8 7)" fill="white"/>
<line x1="447.856" y1="3.5" x2="470" y2="3.5" stroke="#D4D4D4" stroke-width="7"/>
<line x1="415.647" y1="3.5" x2="437.791" y2="3.5" stroke="#D4D4D4" stroke-width="7"/>
<line x1="383.438" y1="3.5" x2="405.582" y2="3.5" stroke="#D4D4D4" stroke-width="7"/>
<line x1="351.229" y1="3.5" x2="373.372" y2="3.5" stroke="#D4D4D4" stroke-width="7"/>
<line x1="319.02" y1="3.5" x2="341.163" y2="3.5" stroke="#D4D4D4" stroke-width="7"/>
<line x1="286.811" y1="3.5" x2="308.954" y2="3.5" stroke="#D4D4D4" stroke-width="7"/>
<line x1="254.601" y1="3.5" x2="276.745" y2="3.5" stroke="#D4D4D4" stroke-width="7"/>
<line x1="222.392" y1="3.5" x2="244.536" y2="3.5" stroke="#D4D4D4" stroke-width="7"/>
<line x1="190.183" y1="3.5" x2="212.327" y2="3.5" stroke="#D4D4D4" stroke-width="7"/>
<line x1="157.974" y1="3.5" x2="180.117" y2="3.5" stroke="#D4D4D4" stroke-width="7"/>
<line x1="125.765" y1="3.5" x2="147.908" y2="3.5" stroke="#D4D4D4" stroke-width="7"/>
<line x1="93.5557" y1="3.5" x2="115.699" y2="3.5" stroke="#D4D4D4" stroke-width="7"/>
<line x1="61.3462" y1="3.5" x2="83.49" y2="3.5" stroke="#D4D4D4" stroke-width="7"/>
<line x1="8" y1="3.5" x2="30.1438" y2="3.5" stroke="#D4D4D4" stroke-width="7"/>
<line x1="34.1699" y1="3.5" x2="56.3137" y2="3.5" stroke="#D4D4D4" stroke-width="7"/>
<line x1="473.5" y1="353" x2="473.5" y2="375" stroke="#D4D4D4" stroke-width="7"/>
<line x1="473.5" y1="289" x2="473.5" y2="311" stroke="#D4D4D4" stroke-width="7"/>
<line x1="473.5" y1="578" x2="473.5" y2="600" stroke="#D4D4D4" stroke-width="7"/>
<rect width="459" height="1" transform="translate(3 609)" fill="white"/>
<line x1="440" y1="605.5" x2="462" y2="605.5" stroke="#D4D4D4" stroke-width="7"/>
<line x1="408" y1="605.5" x2="430" y2="605.5" stroke="#D4D4D4" stroke-width="7"/>
<line x1="376" y1="605.5" x2="398" y2="605.5" stroke="#D4D4D4" stroke-width="7"/>
<line x1="344" y1="605.5" x2="366" y2="605.5" stroke="#D4D4D4" stroke-width="7"/>
<line x1="312" y1="605.5" x2="334" y2="605.5" stroke="#D4D4D4" stroke-width="7"/>
<line x1="280" y1="605.5" x2="302" y2="605.5" stroke="#D4D4D4" stroke-width="7"/>
<line x1="248" y1="605.5" x2="270" y2="605.5" stroke="#D4D4D4" stroke-width="7"/>
<line x1="216" y1="605.5" x2="238" y2="605.5" stroke="#D4D4D4" stroke-width="7"/>
<line x1="184" y1="605.5" x2="206" y2="605.5" stroke="#D4D4D4" stroke-width="7"/>
<line x1="152" y1="605.5" x2="174" y2="605.5" stroke="#D4D4D4" stroke-width="7"/>
<line x1="120" y1="605.5" x2="142" y2="605.5" stroke="#D4D4D4" stroke-width="7"/>
<line x1="88" y1="605.5" x2="110" y2="605.5" stroke="#D4D4D4" stroke-width="7"/>
<line x1="56" y1="605.5" x2="78" y2="605.5" stroke="#D4D4D4" stroke-width="7"/>
<line x1="3" y1="605.5" x2="25" y2="605.5" stroke="#D4D4D4" stroke-width="7"/>
<line x1="29" y1="605.5" x2="51" y2="605.5" stroke="#D4D4D4" stroke-width="7"/>
<line x1="465.5" y1="609.583" x2="465.5" y2="609.621" stroke="#D4D4D4" stroke-width="7"/>
<line x1="465.5" y1="609.476" x2="465.5" y2="609.513" stroke="#D4D4D4" stroke-width="7"/>
<line x1="465.5" y1="609.963" x2="465.5" y2="610" stroke="#D4D4D4" stroke-width="7"/>
</svg>
